<svg id="Ebene_1" data-name="Ebene 1" xmlns="http://www.w3.org/2000/svg" viewBox="0 0 141.73 141.73"><path d="M98.92,50.2a1.25,1.25,0,1,0-1.61,1.91A41.26,41.26,0,0,1,78.8,124.29v-1.91a.36.36,0,0,1,.37-.36h2.57a.38.38,0,0,0,.37-.37V117.4a.37.37,0,0,0-.37-.37h-.23a.36.36,0,0,1-.37-.37v-.37a.37.37,0,0,1,.37-.37h.23a.37.37,0,0,0,.37-.36V111.3a.37.37,0,0,0-.37-.36H79.17a.37.37,0,0,1-.37-.37v-3.68a.36.36,0,0,1,.22-.34,20.61,20.61,0,0,0,0-37.77.38.38,0,0,1-.22-.34v-2.3a.38.38,0,0,1,.37-.37h1.23a.36.36,0,0,0,.37-.37V61.3a.37.37,0,0,0-.37-.37h-.37a.37.37,0,0,1-.37-.36v-1.8a.37.37,0,0,1,.37-.36h.37a.37.37,0,0,0,.37-.37v-4.1a.36.36,0,0,0-.37-.37h-.37a.37.37,0,0,1,0-.74h1.58a.36.36,0,0,0,.36-.36V48.21a.36.36,0,0,0-.36-.36h-5.5a.38.38,0,0,1-.37-.33L72.45,15.6a1.59,1.59,0,0,0-3.17,0L66,47.52a.38.38,0,0,1-.37.33H60.11a.36.36,0,0,0-.37.36v4.26a.36.36,0,0,0,.37.36h1.57a.37.37,0,0,1,0,.74h-.37a.37.37,0,0,0-.37.37V58a.38.38,0,0,0,.37.37h.37a.37.37,0,0,1,.37.36v1.8a.37.37,0,0,1-.37.36h-.37a.38.38,0,0,0-.37.37v4.1a.37.37,0,0,0,.37.37h1.23a.37.37,0,0,1,.37.37v2.3a.36.36,0,0,1-.22.34,20.62,20.62,0,0,0,0,37.77.36.36,0,0,1,.22.34v3.68a.37.37,0,0,1-.36.37H60a.36.36,0,0,0-.36.36v4.26a.36.36,0,0,0,.36.36h.24a.37.37,0,0,1,.36.37v.37a.36.36,0,0,1-.36.37H60a.36.36,0,0,0-.36.37v4.25A.37.37,0,0,0,60,122h2.58a.36.36,0,0,1,.36.36v1.91A41.27,41.27,0,0,1,44.42,52.11a1.25,1.25,0,0,0-1.61-1.91,43.78,43.78,0,1,0,56.11,0Z"/></svg>