<svg id="Ebene_1" data-name="Ebene 1" xmlns="http://www.w3.org/2000/svg" viewBox="0 0 141.73 141.73"><path d="M98.92,50.2a1.25,1.25,0,1,0-1.61,1.91,41.22,41.22,0,0,1-2.49,65.25V39.05a.36.36,0,0,0-.69-.15l-3.38,7.44a.36.36,0,0,1-.68-.09L85.35,15.08a1.06,1.06,0,0,0-2.1,0L78.54,46.25a.36.36,0,0,1-.68.09L74.48,38.9a.36.36,0,0,0-.69.15V74.32a.77.77,0,0,0,0,.15v8.94a.36.36,0,0,1-.69.16l-1.89-3.82a.36.36,0,0,0-.64,0l-1.93,3.69a.36.36,0,0,1-.68-.17V39.05a.36.36,0,0,0-.69-.15l-3.38,7.44a.36.36,0,0,1-.68-.09L58.48,15.08a1.06,1.06,0,0,0-2.1,0L51.67,46.25a.36.36,0,0,1-.69.09L47.6,38.9a.36.36,0,0,0-.69.15v78.31a41.24,41.24,0,0,1-2.49-65.25,1.25,1.25,0,0,0-1.61-1.91,43.78,43.78,0,1,0,56.11,0Z"/></svg>