<svg id="Ebene_1" data-name="Ebene 1" xmlns="http://www.w3.org/2000/svg" viewBox="0 0 141.73 141.73"><path d="M98.92,50.2a1.25,1.25,0,1,0-1.61,1.91,41.25,41.25,0,0,1-9,69.07c1-1.84,1.92-3.67,2.79-5.55A42.59,42.59,0,0,0,94,107.75a1.77,1.77,0,0,0-.67-2,9.22,9.22,0,0,0-1.67-1A26.49,26.49,0,0,0,85.43,103c-1.42-.26-2.86-.47-4.39-.71V98c0-1.09-.16-1.53-1-1.88a2.36,2.36,0,0,1-.93-.86c-.11-.25.1-.56,0-.8-.17-.42-.61-.67-1-.94a1.78,1.78,0,0,0-1-.5c-.63,0-.42-1.13-.48-1.79,0-.27.27-.53.37-.73.67-.16,1.28.17,1.76-.31,0,0,.2,0,.25,0,.54.5,1.2.08,1.77.25a7.66,7.66,0,0,0,1.9.28,2,2,0,0,0,1.18-.4c.26-.17.34-.63.53-1a7.53,7.53,0,0,0,1,.26,2.43,2.43,0,0,0,.89,0c.69-.16,1.2-.71,1.92-.87.24-.06.5-.5.57-.8.18-.71.89-.43,1.4-1s0-1.26-.19-1.79A5.3,5.3,0,0,0,88.83,83c-.25-.25-.31-.69-.54-1s-1-1-1.06-1a31.43,31.43,0,0,1-2.62-3.56A12.78,12.78,0,0,0,84,76a13.87,13.87,0,0,0-.73-1.44A23.86,23.86,0,0,1,81,69.35c.53-.31,1-.58,1.47-.86a1.62,1.62,0,0,0,.72-1.41c.07-1.45-1.3-1.32-2-1.37-.32-.6-.67-1.26-1-1.93s-.36-1.43-.71-2.12a7.14,7.14,0,0,1-.38-2.19c.34-.15.84-.18.86-.35.26-3.51,2.62-3.32,2.64-3.73a2,2,0,0,1,.07-.3l.78-.44V53.7l.17.15a.75.75,0,0,0,1.21-.52.93.93,0,0,0-.06-.34,1.62,1.62,0,0,1,1.14.13,1.23,1.23,0,0,0,.93.08c.82-.3.43-.93.67-1.36h1.49a1.42,1.42,0,0,0,1.37-1.07,1.25,1.25,0,0,0,0-.18A6,6,0,0,0,93,50a1.31,1.31,0,0,0,.54-1.11v-.46a1.78,1.78,0,0,0,1.3-.59,1.06,1.06,0,0,0-.13-1.41l1-.54a.5.5,0,0,0,.25-.44,1.08,1.08,0,0,0-1.08-1.09h-.79l.11-.25c.16-.38.63-1.37-.07-1.35a4.57,4.57,0,0,0-.62.11,9.94,9.94,0,0,1-1.07.19c-.4,0-.81,0-1.21,0a9.53,9.53,0,0,0-1.07,0c-.38,0-1.84,0-2.19,0a6.9,6.9,0,0,1-2.38-.38,12.85,12.85,0,0,1-2.26-.7c-.3-.14-.61-.26-1-.41a5.84,5.84,0,0,0-2.21-.39c-.29,0-.57.08-1,.15-.57-.3-.08-8.86.1-9.71.2.84.31,2.52,1.34,2.91.07-1.47-.65-3.71-.9-6.82V26c.24-.19.48-.54.78-.6,1-.24,1.32-1,1.35-1.89a4.83,4.83,0,0,0-.94-3,5.51,5.51,0,0,1-.55-.84c-.17-.35-.28-.78.08-1.08.59-.5.41-1.17.28-1.71s-.35-1.28-.49-1.94c0-.24-.32-.44-.59-.8-.55,1.39-1.44,2.46-.76,3.93.28.59,0,.87-.7,1.11a6.85,6.85,0,0,0-.67.28,2.75,2.75,0,0,0-.71,2.45,10.15,10.15,0,0,0,1.07,2.23c.32.57.7,1.22.46,1.78a3.83,3.83,0,0,0-.22,1.65c0,1.61,0,3.21,0,4.82a4,4,0,0,1-.06.61c-.7-.06-1.29-.1-1.87-.18A3.92,3.92,0,0,0,74.6,33a1.85,1.85,0,0,0-1.16,1.24c-.2-.45.12-1-.51-1.13a3.63,3.63,0,0,0-.67,0,4.41,4.41,0,0,0-.64.29c-1.42-.87-2-.79-3,.35.76-.14.74,1.06,1.44,1.25a1.56,1.56,0,0,1,.84.72c.2.34.64.67.74,1.06a2.73,2.73,0,0,0-1.47.85,1.93,1.93,0,0,0-.71,1.47,4.42,4.42,0,0,1-.33,1.08c-.3.65-1.11,1.32-.37,2.17,0,0-.09,0-.09.09,0,1.45.86,1.82,1.28,2.46.2.31.33.5-.28.67a1.56,1.56,0,0,1-1.38-.2c-.61-.35-1-1.12-1.83-1.1-.11,0-.25-.31-.35-.5-.45-.84-.9-1.68-1.34-2.52-.31-.61-.3-.62-.94-.93s-1-.54-1.57-.74a2.77,2.77,0,0,0-1,0,16.58,16.58,0,0,0-2,.58c-.23-.58-.43-1.12-.66-1.64a15.64,15.64,0,0,1-1.62-6,3.11,3.11,0,0,0-.29-.86c.41-.31,1-.51,1-1.16.6-.31.24-1.24.94-1.44V27.64c.69-.42-.09-.82,0-1.26.09-.61-.74-1-.57-1.75a2,2,0,0,0-.68.18c-.52-.35-.2-.85-.8-1.1a.6.6,0,0,1-.44.62c-.4-.66-.66-.74-1.34-.61-.26.06-.68.21-.88-.11-.6.3-.29.58-.49,1-.32-.14-.2-.34-.21-.55-.74.53-.41,1.16-.92,1.56a1.91,1.91,0,0,0-.6,1.92c.2.51.87.77.54,1.26-.12.17-.18.14-.41.22.34.91.87.71,1.22,1-.1.11-.18.2-.29.34a1.59,1.59,0,0,1,1,1.16c.16.55.57.2.77.74a12.28,12.28,0,0,1,.74,2.35c0,.61,0,1.62.1,2.21.13.89.19,3.07,1,4.28-2.37.59-5.2.43-7.57.59a.51.51,0,0,0-.35.17h0a1,1,0,0,0-.29.9c0,.18.05.37.09.59-.71-.56-2.23-.44-2.41.14a.71.71,0,0,0,.23.68c.44.29,1.54.82,1.59.88l-.35.34a.51.51,0,0,0-.13.33v.14a1,1,0,0,0,.63.92l1.46.53V48a1,1,0,0,0,.65.93,5.17,5.17,0,0,0,1,.29,11.1,11.1,0,0,0,1.72,0l-.05.42a.82.82,0,0,0,.79.92,4.55,4.55,0,0,0,2.09-.25v.59a.73.73,0,0,0,.77.74,4.58,4.58,0,0,0,1.91-.69c-.07.48-.31.8-.18,1.24.2.66,1.15-.37,1.75.09.11.21-.22.76.42.69.43,0,.12.66.19,1,0,0,0,.1.09.1,1.33,0,.34,1.71,1.88,1.83a2,2,0,0,0,.5-.18c.76-.18,1.09.36,1,.65-.24.87.73.8,1,1.25a5,5,0,0,1-.57,3.1,4.87,4.87,0,0,0-.76,2.51,4.33,4.33,0,0,1-.32,1.72c-.48,1.41-1,2.79-1.46,3.94.16.83,1.69,1.43,1.74,1.57.27.76,1,1.44.44,2.38a3,3,0,0,0-.37,1.1,17.51,17.51,0,0,1-2.23,5.69,16.79,16.79,0,0,1-1.82,2.75,20.26,20.26,0,0,0-1.73,2.75,4.72,4.72,0,0,0-.92,2.83,9.44,9.44,0,0,0,0,1.34,1.93,1.93,0,0,0,1,1.2c.49.24,1.1-.1,1.6,0s.91-.3,1.44-.25a2.8,2.8,0,0,0,0,1.13c.23.37.71.38,1.06.5s1,.53,1.43.42a8.12,8.12,0,0,1,1.76-.2c-.69.39-.45.91-.67,1.62a3.84,3.84,0,0,1-.91,1.5,2.72,2.72,0,0,1-.72.5c-1.82.54-2,.85-2,2.62v4c-1.57.25-3,.44-4.42.71A25.18,25.18,0,0,0,49.58,105c-1.87.94-2.2,1.59-1.68,3.45a61.23,61.23,0,0,0,5.42,12.72,41.26,41.26,0,0,1-8.9-69,1.25,1.25,0,0,0-1.61-1.91,43.78,43.78,0,1,0,56.11,0ZM55.79,29.54c.06-.28,0-.43-.29-.58-.5.78-1.17.13-1.57.17-.81-.64-.09-1.62-.7-2.23.17-.41.19-.95.48-1.19A2.41,2.41,0,0,1,56,25.27c.81.33.41,1.67,1.43,2A5.14,5.14,0,0,1,57,28.62,5.84,5.84,0,0,1,55.79,29.54ZM75.65,35c.68-.13.46-.88,2.21-.64,0,1.18-.28,5.32-.33,6A11.48,11.48,0,0,1,77,43.73,11,11,0,0,0,76,46.34a1.43,1.43,0,0,1-.26.56c-.26.45-.5.5-1.08.27L74.17,47c-.17-.49-.41-1.22.09-1.44a3.15,3.15,0,0,0,2-2.28c.06-.24-.47-.51,0-.88.09-.08-.08-.53-.19-.78s0-.42,0-.57c.16-.16,0-.74-.24-.59l-.25-1.14A2.83,2.83,0,0,0,73.85,37C74.45,36.35,74,35.37,75.65,35Z"/></svg>