<svg id="Ebene_1" data-name="Ebene 1" xmlns="http://www.w3.org/2000/svg" viewBox="0 0 141.73 141.73"><path d="M75.27,95.31c1.6-5.68,3.63-15.51,4.89-20.73.42-1.7-1.42-2.37-3-2.17S73,73.89,72.58,75c-.83,5.1-2.72,15.4-3.45,20.55C68.72,98.72,74.67,97.61,75.27,95.31Z"/><path d="M67.68,95.13c.67-5.73,1-10.61,1.39-15.83.14-1.71-1.74-2.07-3.21-1.64s-3.83,2.07-4,3.24c0,5-.11,9.9,0,15C61.88,99,67.46,97.38,67.68,95.13Z"/><path d="M54.61,109.4H87.13a8.33,8.33,0,0,0,8.3-8.38L92.84,62H82.66V57.17a11.8,11.8,0,1,0-23.59,0V62H48.89L46.3,101.1A8.32,8.32,0,0,0,54.61,109.4Zm6.82-52.23a9.44,9.44,0,1,1,18.87,0V62H61.43ZM51.1,64.39H90.63l2.44,36.71A6,6,0,0,1,87.13,107H54.61a5.94,5.94,0,0,1-6-5.87Z"/><path d="M98.92,50.2a1.25,1.25,0,1,0-1.61,1.91,41.27,41.27,0,1,1-52.89,0,1.25,1.25,0,0,0-1.61-1.91,43.78,43.78,0,1,0,56.11,0Z"/></svg>